<svg width="19" height="19" viewBox="0 0 19 19" fill="none" xmlns="http://www.w3.org/2000/svg">
<path d="M7.13549 0.152844C3.79683 0.442265 1.07842 2.83057 0.35383 6.10981C0.188136 6.86298 0.162232 8.14055 0.297259 8.89981C0.567503 10.4089 1.24987 11.762 2.28106 12.8354C3.33987 13.9376 4.60872 14.6494 6.15274 15.0049C6.87321 15.1746 8.21235 15.2018 8.9578 15.0665C9.80701 14.9146 10.7113 14.5946 11.3583 14.2177C11.5342 14.1179 11.6958 14.0319 11.7099 14.0322C11.7287 14.0326 12.622 14.9482 13.6994 16.0601C15.9231 18.3654 15.8676 18.322 16.5208 18.3305C16.9907 18.3401 17.2749 18.2331 17.5865 17.9339C17.8981 17.6348 18.0166 17.3553 18.0261 16.8856C18.0396 16.2233 18.0853 16.2853 15.862 13.9613C13.9701 11.987 13.9058 11.9105 13.969 11.8084C14.4878 11.0248 14.863 10.1396 15.0703 9.18996C15.2356 8.45558 15.2617 7.16861 15.1267 6.40935C14.5823 3.35342 12.3083 0.976662 9.29463 0.309398C8.83605 0.20612 7.56872 0.114639 7.13549 0.152844ZM8.61601 2.48063C9.71688 2.66741 10.712 3.19977 11.4992 4.01924C13.0322 5.61506 13.407 7.9956 12.4366 9.94947C12.1329 10.5589 11.8186 10.9895 11.3488 11.4405C9.75246 12.9681 7.37092 13.3474 5.42561 12.3823C3.80615 11.5742 2.73156 10.091 2.50367 8.34779C2.20609 6.10038 3.36398 3.93887 5.40559 2.93711C6.4169 2.44074 7.50123 2.28416 8.61601 2.48063Z" fill="black"/>
</svg>
